<?xml version="1.0" encoding="UTF-8" standalone="no"?>
<!DOCTYPE svg PUBLIC "-//W3C//DTD SVG 1.1//EN"
 "http://www.w3.org/Graphics/SVG/1.1/DTD/svg11.dtd">
<!-- Generated by graphviz version 2.38.0 (20140413.2041)
 -->
<!-- Title: controllers_diagram Pages: 1 -->
<svg width="540pt" height="589pt"
 viewBox="0.00 0.00 539.51 589.00" xmlns="http://www.w3.org/2000/svg" xmlns:xlink="http://www.w3.org/1999/xlink">
<g id="graph0" class="graph" transform="scale(1 1) rotate(0) translate(237.821 351.5)">
<title>controllers_diagram</title>
<polygon fill="none" stroke="none" points="-237.821,237.5 -237.821,-351.5 301.688,-351.5 301.688,237.5 -237.821,237.5"/>
<!-- _diagram_info -->
<g id="node1" class="node"><title>_diagram_info</title>
<text text-anchor="start" x="98.3123" y="138.9" font-family="Times,serif" font-size="13.00">Controllers diagram</text>
<text text-anchor="start" x="98.3123" y="151.9" font-family="Times,serif" font-size="13.00">Date: Aug 05 2015 &#45; 05:33</text>
<text text-anchor="start" x="98.3123" y="164.9" font-family="Times,serif" font-size="13.00">Migration version: 20150802123646</text>
<text text-anchor="start" x="98.3123" y="177.9" font-family="Times,serif" font-size="13.00">Generated by RailRoady 1.3.1</text>
<text text-anchor="start" x="98.3123" y="190.9" font-family="Times,serif" font-size="13.00">http://railroady.prestonlee.com</text>
</g>
<!-- ApplicationController -->
<g id="node2" class="node"><title>ApplicationController</title>
<path fill="none" stroke="black" d="M-221.821,233C-221.821,233 -106.179,233 -106.179,233 -100.179,233 -94.1792,227 -94.1792,221 -94.1792,221 -94.1792,153 -94.1792,153 -94.1792,147 -100.179,141 -106.179,141 -106.179,141 -221.821,141 -221.821,141 -227.821,141 -233.821,147 -233.821,153 -233.821,153 -233.821,221 -233.821,221 -233.821,227 -227.821,233 -221.821,233"/>
<text text-anchor="middle" x="-164" y="156.2" font-family="Times,serif" font-size="14.00">ApplicationController</text>
<polyline fill="none" stroke="black" points="-233.821,163 -94.1792,163 "/>
<polyline fill="none" stroke="black" points="-233.821,187 -94.1792,187 "/>
<polyline fill="none" stroke="black" points="-233.821,211 -94.1792,211 "/>
<text text-anchor="start" x="-225.821" y="226.2" font-family="Times,serif" font-size="14.00">_layout</text>
</g>
<!-- CommunitiesController -->
<g id="node3" class="node"><title>CommunitiesController</title>
<path fill="none" stroke="black" d="M-78.4966,107C-78.4966,107 46.4966,107 46.4966,107 52.4966,107 58.4966,101 58.4966,95 58.4966,95 58.4966,-83 58.4966,-83 58.4966,-89 52.4966,-95 46.4966,-95 46.4966,-95 -78.4966,-95 -78.4966,-95 -84.4966,-95 -90.4966,-89 -90.4966,-83 -90.4966,-83 -90.4966,95 -90.4966,95 -90.4966,101 -84.4966,107 -78.4966,107"/>
<text text-anchor="middle" x="-16" y="-79.8" font-family="Times,serif" font-size="14.00">CommunitiesController</text>
<polyline fill="none" stroke="black" points="-90.4966,-73 58.4966,-73 "/>
<text text-anchor="start" x="-82.4966" y="-57.8" font-family="Times,serif" font-size="14.00">create</text>
<text text-anchor="start" x="-82.4966" y="-43.8" font-family="Times,serif" font-size="14.00">destroy</text>
<text text-anchor="start" x="-82.4966" y="-29.8" font-family="Times,serif" font-size="14.00">edit</text>
<text text-anchor="start" x="-82.4966" y="-15.8" font-family="Times,serif" font-size="14.00">index</text>
<text text-anchor="start" x="-82.4966" y="-1.8" font-family="Times,serif" font-size="14.00">new</text>
<text text-anchor="start" x="-82.4966" y="12.2" font-family="Times,serif" font-size="14.00">show</text>
<text text-anchor="start" x="-82.4966" y="26.2" font-family="Times,serif" font-size="14.00">update</text>
<polyline fill="none" stroke="black" points="-90.4966,33 58.4966,33 "/>
<polyline fill="none" stroke="black" points="-90.4966,57 58.4966,57 "/>
<text text-anchor="start" x="-82.4966" y="72.2" font-family="Times,serif" font-size="14.00">_layout</text>
<text text-anchor="start" x="-82.4966" y="86.2" font-family="Times,serif" font-size="14.00">community_params</text>
<text text-anchor="start" x="-82.4966" y="100.2" font-family="Times,serif" font-size="14.00">set_community</text>
</g>
<!-- HomeController -->
<g id="node4" class="node"><title>HomeController</title>
<path fill="none" stroke="black" d="M-203.879,-217C-203.879,-217 -120.121,-217 -120.121,-217 -114.121,-217 -108.121,-223 -108.121,-229 -108.121,-229 -108.121,-295 -108.121,-295 -108.121,-301 -114.121,-307 -120.121,-307 -120.121,-307 -203.879,-307 -203.879,-307 -209.879,-307 -215.879,-301 -215.879,-295 -215.879,-295 -215.879,-229 -215.879,-229 -215.879,-223 -209.879,-217 -203.879,-217"/>
<text text-anchor="middle" x="-162" y="-291.8" font-family="Times,serif" font-size="14.00">HomeController</text>
<polyline fill="none" stroke="black" points="-215.879,-285 -108.121,-285 "/>
<text text-anchor="start" x="-207.879" y="-269.8" font-family="Times,serif" font-size="14.00">index</text>
<polyline fill="none" stroke="black" points="-215.879,-263 -108.121,-263 "/>
<polyline fill="none" stroke="black" points="-215.879,-239 -108.121,-239 "/>
<text text-anchor="start" x="-207.879" y="-223.8" font-family="Times,serif" font-size="14.00">_layout</text>
</g>
<!-- InitiativesController -->
<g id="node5" class="node"><title>InitiativesController</title>
<path fill="none" stroke="black" d="M-59.7656,-127C-59.7656,-127 45.7656,-127 45.7656,-127 51.7656,-127 57.7656,-133 57.7656,-139 57.7656,-139 57.7656,-317 57.7656,-317 57.7656,-323 51.7656,-329 45.7656,-329 45.7656,-329 -59.7656,-329 -59.7656,-329 -65.7656,-329 -71.7656,-323 -71.7656,-317 -71.7656,-317 -71.7656,-139 -71.7656,-139 -71.7656,-133 -65.7656,-127 -59.7656,-127"/>
<text text-anchor="middle" x="-7" y="-313.8" font-family="Times,serif" font-size="14.00">InitiativesController</text>
<polyline fill="none" stroke="black" points="-71.7656,-307 57.7656,-307 "/>
<text text-anchor="start" x="-63.7656" y="-291.8" font-family="Times,serif" font-size="14.00">create</text>
<text text-anchor="start" x="-63.7656" y="-277.8" font-family="Times,serif" font-size="14.00">destroy</text>
<text text-anchor="start" x="-63.7656" y="-263.8" font-family="Times,serif" font-size="14.00">edit</text>
<text text-anchor="start" x="-63.7656" y="-249.8" font-family="Times,serif" font-size="14.00">index</text>
<text text-anchor="start" x="-63.7656" y="-235.8" font-family="Times,serif" font-size="14.00">new</text>
<text text-anchor="start" x="-63.7656" y="-221.8" font-family="Times,serif" font-size="14.00">show</text>
<text text-anchor="start" x="-63.7656" y="-207.8" font-family="Times,serif" font-size="14.00">update</text>
<polyline fill="none" stroke="black" points="-71.7656,-201 57.7656,-201 "/>
<polyline fill="none" stroke="black" points="-71.7656,-177 57.7656,-177 "/>
<text text-anchor="start" x="-63.7656" y="-161.8" font-family="Times,serif" font-size="14.00">_layout</text>
<text text-anchor="start" x="-63.7656" y="-147.8" font-family="Times,serif" font-size="14.00">initiative_params</text>
<text text-anchor="start" x="-63.7656" y="-133.8" font-family="Times,serif" font-size="14.00">set_initiative</text>
</g>
<!-- OrganisationsController -->
<g id="node6" class="node"><title>OrganisationsController</title>
<path fill="none" stroke="black" d="M102.468,89C102.468,89 229.532,89 229.532,89 235.532,89 241.532,83 241.532,77 241.532,77 241.532,-101 241.532,-101 241.532,-107 235.532,-113 229.532,-113 229.532,-113 102.468,-113 102.468,-113 96.4678,-113 90.4678,-107 90.4678,-101 90.4678,-101 90.4678,77 90.4678,77 90.4678,83 96.4678,89 102.468,89"/>
<text text-anchor="middle" x="166" y="-97.8" font-family="Times,serif" font-size="14.00">OrganisationsController</text>
<polyline fill="none" stroke="black" points="90.4678,-91 241.532,-91 "/>
<text text-anchor="start" x="98.4678" y="-75.8" font-family="Times,serif" font-size="14.00">create</text>
<text text-anchor="start" x="98.4678" y="-61.8" font-family="Times,serif" font-size="14.00">destroy</text>
<text text-anchor="start" x="98.4678" y="-47.8" font-family="Times,serif" font-size="14.00">edit</text>
<text text-anchor="start" x="98.4678" y="-33.8" font-family="Times,serif" font-size="14.00">index</text>
<text text-anchor="start" x="98.4678" y="-19.8" font-family="Times,serif" font-size="14.00">new</text>
<text text-anchor="start" x="98.4678" y="-5.8" font-family="Times,serif" font-size="14.00">show</text>
<text text-anchor="start" x="98.4678" y="8.2" font-family="Times,serif" font-size="14.00">update</text>
<polyline fill="none" stroke="black" points="90.4678,15 241.532,15 "/>
<polyline fill="none" stroke="black" points="90.4678,39 241.532,39 "/>
<text text-anchor="start" x="98.4678" y="54.2" font-family="Times,serif" font-size="14.00">_layout</text>
<text text-anchor="start" x="98.4678" y="68.2" font-family="Times,serif" font-size="14.00">organisation_params</text>
<text text-anchor="start" x="98.4678" y="82.2" font-family="Times,serif" font-size="14.00">set_organisation</text>
</g>
<!-- ProblemsController -->
<g id="node7" class="node"><title>ProblemsController</title>
<path fill="none" stroke="black" d="M155.783,-145C155.783,-145 258.217,-145 258.217,-145 264.217,-145 270.217,-151 270.217,-157 270.217,-157 270.217,-335 270.217,-335 270.217,-341 264.217,-347 258.217,-347 258.217,-347 155.783,-347 155.783,-347 149.783,-347 143.783,-341 143.783,-335 143.783,-335 143.783,-157 143.783,-157 143.783,-151 149.783,-145 155.783,-145"/>
<text text-anchor="middle" x="207" y="-331.8" font-family="Times,serif" font-size="14.00">ProblemsController</text>
<polyline fill="none" stroke="black" points="143.783,-325 270.217,-325 "/>
<text text-anchor="start" x="151.783" y="-309.8" font-family="Times,serif" font-size="14.00">create</text>
<text text-anchor="start" x="151.783" y="-295.8" font-family="Times,serif" font-size="14.00">destroy</text>
<text text-anchor="start" x="151.783" y="-281.8" font-family="Times,serif" font-size="14.00">edit</text>
<text text-anchor="start" x="151.783" y="-267.8" font-family="Times,serif" font-size="14.00">index</text>
<text text-anchor="start" x="151.783" y="-253.8" font-family="Times,serif" font-size="14.00">new</text>
<text text-anchor="start" x="151.783" y="-239.8" font-family="Times,serif" font-size="14.00">show</text>
<text text-anchor="start" x="151.783" y="-225.8" font-family="Times,serif" font-size="14.00">update</text>
<polyline fill="none" stroke="black" points="143.783,-219 270.217,-219 "/>
<polyline fill="none" stroke="black" points="143.783,-195 270.217,-195 "/>
<text text-anchor="start" x="151.783" y="-179.8" font-family="Times,serif" font-size="14.00">_layout</text>
<text text-anchor="start" x="151.783" y="-165.8" font-family="Times,serif" font-size="14.00">problem_params</text>
<text text-anchor="start" x="151.783" y="-151.8" font-family="Times,serif" font-size="14.00">set_problem</text>
</g>
</g>
</svg>
