<?xml version="1.0" encoding="UTF-8" standalone="no"?>
<!DOCTYPE svg PUBLIC "-//W3C//DTD SVG 1.1//EN"
 "http://www.w3.org/Graphics/SVG/1.1/DTD/svg11.dtd">
<!-- Generated by graphviz version 2.38.0 (20140413.2041)
 -->
<!-- Title: models_diagram Pages: 1 -->
<svg width="812pt" height="412pt"
 viewBox="0.00 0.00 811.69 412.00" xmlns="http://www.w3.org/2000/svg" xmlns:xlink="http://www.w3.org/1999/xlink">
<g id="graph0" class="graph" transform="scale(1 1) rotate(0) translate(4 408)">
<title>models_diagram</title>
<polygon fill="none" stroke="none" points="-4,4 -4,-408 807.688,-408 807.688,4 -4,4"/>
<!-- _diagram_info -->
<g id="node1" class="node"><title>_diagram_info</title>
<text text-anchor="start" x="8" y="-389.6" font-family="Times,serif" font-size="13.00">Models diagram</text>
<text text-anchor="start" x="8" y="-376.6" font-family="Times,serif" font-size="13.00">Date: Aug 05 2015 &#45; 05:33</text>
<text text-anchor="start" x="8" y="-363.6" font-family="Times,serif" font-size="13.00">Migration version: 20150802123646</text>
<text text-anchor="start" x="8" y="-350.6" font-family="Times,serif" font-size="13.00">Generated by RailRoady 1.3.1</text>
<text text-anchor="start" x="8" y="-337.6" font-family="Times,serif" font-size="13.00">http://railroady.prestonlee.com</text>
</g>
<!-- Client -->
<g id="node2" class="node"><title>Client</title>
<ellipse fill="none" stroke="black" cx="334.688" cy="-367.5" rx="109.363" ry="18"/>
<text text-anchor="middle" x="334.688" y="-363.3" font-family="Times,serif" font-size="14.00">Client</text>
</g>
<!-- Community -->
<g id="node3" class="node"><title>Community</title>
<ellipse fill="none" stroke="black" cx="254.688" cy="-263" rx="52.2278" ry="18"/>
<text text-anchor="middle" x="254.688" y="-258.8" font-family="Times,serif" font-size="14.00">Community</text>
</g>
<!-- Client&#45;&gt;Community -->
<g id="edge3" class="edge"><title>Client&#45;&gt;Community</title>
<path fill="none" stroke="#b23610" d="M316.279,-342.914C303.612,-326.685 286.821,-305.171 273.97,-288.706"/>
<ellipse fill="none" stroke="#b23610" cx="319.016" cy="-346.421" rx="4.00002" ry="4.00002"/>
<polygon fill="#b23610" stroke="#b23610" points="273.805,-288.494 271.2,-277.842 270.729,-284.552 267.652,-280.611 267.652,-280.611 267.652,-280.611 270.729,-284.552 264.105,-283.38 273.805,-288.494 273.805,-288.494"/>
</g>
<!-- Initiative -->
<g id="node4" class="node"><title>Initiative</title>
<ellipse fill="none" stroke="black" cx="314.688" cy="-104" rx="42.0611" ry="18"/>
<text text-anchor="middle" x="314.688" y="-99.8" font-family="Times,serif" font-size="14.00">Initiative</text>
</g>
<!-- Client&#45;&gt;Initiative -->
<g id="edge1" class="edge"><title>Client&#45;&gt;Initiative</title>
<path fill="none" stroke="#835f81" d="M332.597,-339.168C328.756,-288.946 320.618,-182.538 316.777,-132.323"/>
<polygon fill="#835f81" stroke="#835f81" points="332.613,-339.371 328.889,-349.685 332.994,-344.357 333.375,-349.342 333.375,-349.342 333.375,-349.342 332.994,-344.357 337.862,-348.999 332.613,-339.371 332.613,-339.371"/>
<polygon fill="#835f81" stroke="#835f81" points="316.768,-132.192 320.492,-121.878 316.386,-127.206 316.005,-122.221 316.005,-122.221 316.005,-122.221 316.386,-127.206 311.518,-122.564 316.768,-132.192 316.768,-132.192"/>
<text text-anchor="middle" x="349.35" y="-215.8" font-family="Times,serif" font-size="14.00">intiatives</text>
</g>
<!-- Organisation -->
<g id="node9" class="node"><title>Organisation</title>
<ellipse fill="none" stroke="black" cx="334.688" cy="-18" rx="55.7654" ry="18"/>
<text text-anchor="middle" x="334.688" y="-13.8" font-family="Times,serif" font-size="14.00">Organisation</text>
</g>
<!-- Client&#45;&gt;Organisation -->
<g id="edge2" class="edge"><title>Client&#45;&gt;Organisation</title>
<path fill="none" stroke="#1c26d1" d="M360.022,-343.883C378.633,-324.682 400.688,-295.321 400.688,-264 400.688,-264 400.688,-264 400.688,-103 400.688,-79.478 394.997,-72.6691 380.688,-54 377.012,-49.2038 372.52,-44.7274 367.799,-40.6856"/>
<ellipse fill="none" stroke="#1c26d1" cx="356.967" cy="-346.927" rx="4.00002" ry="4.00002"/>
<polygon fill="#1c26d1" stroke="#1c26d1" points="367.586,-40.5174 362.534,-30.7847 363.664,-37.4159 359.743,-34.3144 359.743,-34.3144 359.743,-34.3144 363.664,-37.4159 356.951,-37.8441 367.586,-40.5174 367.586,-40.5174"/>
</g>
<!-- Problem -->
<g id="node10" class="node"><title>Problem</title>
<ellipse fill="none" stroke="black" cx="263.688" cy="-177" rx="40.149" ry="18"/>
<text text-anchor="middle" x="263.688" y="-172.8" font-family="Times,serif" font-size="14.00">Problem</text>
</g>
<!-- Community&#45;&gt;Problem -->
<g id="edge4" class="edge"><title>Community&#45;&gt;Problem</title>
<path fill="none" stroke="#3bad84" d="M257.402,-236.665C258.455,-226.835 259.664,-215.552 260.739,-205.523"/>
<ellipse fill="none" stroke="#3bad84" cx="256.935" cy="-241.024" rx="4" ry="4"/>
<polygon fill="#3bad84" stroke="#3bad84" points="260.773,-205.205 266.313,-195.741 261.306,-200.233 261.838,-195.262 261.838,-195.262 261.838,-195.262 261.306,-200.233 257.364,-194.782 260.773,-205.205 260.773,-205.205"/>
</g>
<!-- Initiative&#45;&gt;Organisation -->
<g id="edge5" class="edge"><title>Initiative&#45;&gt;Organisation</title>
<path fill="none" stroke="#7bc117" d="M312.954,-75.8893C313.11,-68.6794 313.844,-60.9631 315.688,-54 316.494,-50.9569 317.614,-47.8891 318.911,-44.9016"/>
<polygon fill="#7bc117" stroke="#7bc117" points="312.954,-75.9442 308.577,-85.9983 313.015,-80.9438 313.076,-85.9434 313.076,-85.9434 313.076,-85.9434 313.015,-80.9438 317.576,-85.8886 312.954,-75.9442 312.954,-75.9442"/>
<polygon fill="#7bc117" stroke="#7bc117" points="319.011,-44.7018 327.514,-37.7767 321.251,-40.2314 323.49,-35.761 323.49,-35.761 323.49,-35.761 321.251,-40.2314 319.467,-33.7454 319.011,-44.7018 319.011,-44.7018"/>
</g>
<!-- Model::FocusArea -->
<g id="node5" class="node"><title>Model::FocusArea</title>
<ellipse fill="none" stroke="black" cx="560.688" cy="-263" rx="76.3398" ry="18"/>
<text text-anchor="middle" x="560.688" y="-258.8" font-family="Times,serif" font-size="14.00">Model::FocusArea</text>
</g>
<!-- Model::InterventionCharacteristic -->
<g id="node7" class="node"><title>Model::InterventionCharacteristic</title>
<ellipse fill="none" stroke="black" cx="560.688" cy="-177" rx="130.37" ry="18"/>
<text text-anchor="middle" x="560.688" y="-172.8" font-family="Times,serif" font-size="14.00">Model::InterventionCharacteristic</text>
</g>
<!-- Model::FocusArea&#45;&gt;Model::InterventionCharacteristic -->
<g id="edge6" class="edge"><title>Model::FocusArea&#45;&gt;Model::InterventionCharacteristic</title>
<path fill="none" stroke="#6d3b4e" d="M560.688,-236.257C560.688,-226.441 560.688,-215.226 560.688,-205.273"/>
<ellipse fill="none" stroke="#6d3b4e" cx="560.688" cy="-240.595" rx="4" ry="4"/>
<polygon fill="#6d3b4e" stroke="#6d3b4e" points="560.688,-205.095 565.188,-195.095 560.688,-200.095 560.688,-195.095 560.688,-195.095 560.688,-195.095 560.688,-200.095 556.188,-195.095 560.688,-205.095 560.688,-205.095"/>
<text text-anchor="middle" x="638.043" y="-215.8" font-family="Times,serif" font-size="14.00">intervention_characteristics</text>
</g>
<!-- Model::FocusAreaGroup -->
<g id="node6" class="node"><title>Model::FocusAreaGroup</title>
<ellipse fill="none" stroke="black" cx="560.688" cy="-367.5" rx="99.0329" ry="18"/>
<text text-anchor="middle" x="560.688" y="-363.3" font-family="Times,serif" font-size="14.00">Model::FocusAreaGroup</text>
</g>
<!-- Model::FocusAreaGroup&#45;&gt;Model::FocusArea -->
<g id="edge7" class="edge"><title>Model::FocusAreaGroup&#45;&gt;Model::FocusArea</title>
<path fill="none" stroke="#650985" d="M560.688,-341.017C560.688,-325.986 560.688,-306.959 560.688,-291.577"/>
<ellipse fill="none" stroke="#650985" cx="560.688" cy="-345.112" rx="4" ry="4"/>
<polygon fill="#650985" stroke="#650985" points="560.688,-291.131 565.188,-281.131 560.688,-286.131 560.688,-281.131 560.688,-281.131 560.688,-281.131 560.688,-286.131 556.188,-281.131 560.688,-291.131 560.688,-291.131"/>
<text text-anchor="middle" x="593.726" y="-301.8" font-family="Times,serif" font-size="14.00">focus_areas</text>
</g>
<!-- Model -->
<g id="node8" class="node"><title>Model</title>
<polygon fill="none" stroke="black" stroke-dasharray="1,5" points="731.688,-385.5 677.688,-385.5 677.688,-349.5 731.688,-349.5 731.688,-385.5"/>
<text text-anchor="middle" x="704.688" y="-363.3" font-family="Times,serif" font-size="14.00">Model</text>
</g>
<!-- Organisation&#45;&gt;Initiative -->
<g id="edge8" class="edge"><title>Organisation&#45;&gt;Initiative</title>
<path fill="none" stroke="#e72bc2" d="M328.295,-45.8492C325.996,-55.5039 323.404,-66.3919 321.103,-76.0547"/>
<polygon fill="#e72bc2" stroke="#e72bc2" points="328.33,-45.7014 335.024,-37.0157 329.488,-40.8374 330.646,-35.9734 330.646,-35.9734 330.646,-35.9734 329.488,-40.8374 326.269,-34.931 328.33,-45.7014 328.33,-45.7014"/>
<polygon fill="#e72bc2" stroke="#e72bc2" points="321.051,-76.2733 314.357,-84.959 319.893,-81.1373 318.735,-86.0013 318.735,-86.0013 318.735,-86.0013 319.893,-81.1373 323.113,-87.0437 321.051,-76.2733 321.051,-76.2733"/>
<text text-anchor="middle" x="351.35" y="-56.8" font-family="Times,serif" font-size="14.00">intiatives</text>
</g>
<!-- Problem&#45;&gt;Initiative -->
<g id="edge9" class="edge"><title>Problem&#45;&gt;Initiative</title>
<path fill="none" stroke="#02b462" d="M280.188,-153.029C285.516,-145.612 291.444,-137.359 296.863,-129.815"/>
<ellipse fill="none" stroke="#02b462" cx="277.85" cy="-156.284" rx="4.00002" ry="4.00002"/>
<polygon fill="#02b462" stroke="#02b462" points="297.089,-129.5 306.578,-124.003 300.006,-125.439 302.923,-121.378 302.923,-121.378 302.923,-121.378 300.006,-125.439 299.268,-118.753 297.089,-129.5 297.089,-129.5"/>
</g>
<!-- User -->
<g id="node11" class="node"><title>User</title>
<ellipse fill="none" stroke="black" cx="776.688" cy="-367.5" rx="27" ry="18"/>
<text text-anchor="middle" x="776.688" y="-363.3" font-family="Times,serif" font-size="14.00">User</text>
</g>
</g>
</svg>
