<?xml version="1.0" encoding="UTF-8" standalone="no"?>
<!DOCTYPE svg PUBLIC "-//W3C//DTD SVG 1.1//EN"
 "http://www.w3.org/Graphics/SVG/1.1/DTD/svg11.dtd">
<!-- Generated by graphviz version 2.38.0 (20140413.2041)
 -->
<!-- Title: models_diagram Pages: 1 -->
<svg width="939pt" height="882pt"
 viewBox="0.00 0.00 938.97 882.00" xmlns="http://www.w3.org/2000/svg" xmlns:xlink="http://www.w3.org/1999/xlink">
<g id="graph0" class="graph" transform="scale(1 1) rotate(0) translate(4 878)">
<title>models_diagram</title>
<polygon fill="none" stroke="none" points="-4,4 -4,-878 934.966,-878 934.966,4 -4,4"/>
<!-- _diagram_info -->
<g id="node1" class="node"><title>_diagram_info</title>
<text text-anchor="start" x="8" y="-789.6" font-family="Times,serif" font-size="13.00">Models diagram</text>
<text text-anchor="start" x="8" y="-776.6" font-family="Times,serif" font-size="13.00">Date: Aug 05 2015 &#45; 05:33</text>
<text text-anchor="start" x="8" y="-763.6" font-family="Times,serif" font-size="13.00">Migration version: 20150802123646</text>
<text text-anchor="start" x="8" y="-750.6" font-family="Times,serif" font-size="13.00">Generated by RailRoady 1.3.1</text>
<text text-anchor="start" x="8" y="-737.6" font-family="Times,serif" font-size="13.00">http://railroady.prestonlee.com</text>
</g>
<!-- Client -->
<g id="node2" class="node"><title>Client</title>
<path fill="none" stroke="black" d="M237.195,-703.5C237.195,-703.5 450.18,-703.5 450.18,-703.5 456.18,-703.5 462.18,-709.5 462.18,-715.5 462.18,-715.5 462.18,-819.5 462.18,-819.5 462.18,-825.5 456.18,-831.5 450.18,-831.5 450.18,-831.5 237.195,-831.5 237.195,-831.5 231.195,-831.5 225.195,-825.5 225.195,-819.5 225.195,-819.5 225.195,-715.5 225.195,-715.5 225.195,-709.5 231.195,-703.5 237.195,-703.5"/>
<text text-anchor="middle" x="343.688" y="-816.3" font-family="Times,serif" font-size="14.00">Client</text>
<polyline fill="none" stroke="black" points="225.195,-809.5 462.18,-809.5 "/>
<text text-anchor="start" x="233.195" y="-794.3" font-family="Times,serif" font-size="14.00">id :integer</text>
<text text-anchor="start" x="233.195" y="-780.3" font-family="Times,serif" font-size="14.00">name :string</text>
<text text-anchor="start" x="233.195" y="-766.3" font-family="Times,serif" font-size="14.00">description :string</text>
<text text-anchor="start" x="233.195" y="-752.3" font-family="Times,serif" font-size="14.00">type :string</text>
<text text-anchor="start" x="233.195" y="-738.3" font-family="Times,serif" font-size="14.00">client_id :integer</text>
<text text-anchor="start" x="233.195" y="-724.3" font-family="Times,serif" font-size="14.00">created_at :datetime</text>
<text text-anchor="start" x="233.195" y="-710.3" font-family="Times,serif" font-size="14.00">updated_at :datetime</text>
</g>
<!-- Community -->
<g id="node3" class="node"><title>Community</title>
<path fill="none" stroke="black" d="M91.1951,-496.5C91.1951,-496.5 304.18,-496.5 304.18,-496.5 310.18,-496.5 316.18,-502.5 316.18,-508.5 316.18,-508.5 316.18,-598.5 316.18,-598.5 316.18,-604.5 310.18,-610.5 304.18,-610.5 304.18,-610.5 91.1951,-610.5 91.1951,-610.5 85.1951,-610.5 79.1951,-604.5 79.1951,-598.5 79.1951,-598.5 79.1951,-508.5 79.1951,-508.5 79.1951,-502.5 85.1951,-496.5 91.1951,-496.5"/>
<text text-anchor="middle" x="197.688" y="-595.3" font-family="Times,serif" font-size="14.00">Community</text>
<polyline fill="none" stroke="black" points="79.1951,-588.5 316.18,-588.5 "/>
<text text-anchor="start" x="87.1951" y="-573.3" font-family="Times,serif" font-size="14.00">id :integer</text>
<text text-anchor="start" x="87.1951" y="-559.3" font-family="Times,serif" font-size="14.00">name :string</text>
<text text-anchor="start" x="87.1951" y="-545.3" font-family="Times,serif" font-size="14.00">description :string</text>
<text text-anchor="start" x="87.1951" y="-531.3" font-family="Times,serif" font-size="14.00">client_id :integer</text>
<text text-anchor="start" x="87.1951" y="-517.3" font-family="Times,serif" font-size="14.00">created_at :datetime</text>
<text text-anchor="start" x="87.1951" y="-503.3" font-family="Times,serif" font-size="14.00">updated_at :datetime</text>
</g>
<!-- Client&#45;&gt;Community -->
<g id="edge3" class="edge"><title>Client&#45;&gt;Community</title>
<path fill="none" stroke="#69d884" d="M295.711,-696.834C278.521,-671.874 259.225,-643.856 242.329,-619.322"/>
<ellipse fill="none" stroke="#69d884" cx="298.009" cy="-700.173" rx="4.00002" ry="4.00002"/>
<polygon fill="#69d884" stroke="#69d884" points="242.132,-619.036 240.167,-608.248 239.296,-614.918 236.46,-610.8 236.46,-610.8 236.46,-610.8 239.296,-614.918 232.754,-613.352 242.132,-619.036 242.132,-619.036"/>
</g>
<!-- Initiative -->
<g id="node4" class="node"><title>Initiative</title>
<path fill="none" stroke="black" d="M258.182,-179.5C258.182,-179.5 367.193,-179.5 367.193,-179.5 373.193,-179.5 379.193,-185.5 379.193,-191.5 379.193,-191.5 379.193,-281.5 379.193,-281.5 379.193,-287.5 373.193,-293.5 367.193,-293.5 367.193,-293.5 258.182,-293.5 258.182,-293.5 252.182,-293.5 246.182,-287.5 246.182,-281.5 246.182,-281.5 246.182,-191.5 246.182,-191.5 246.182,-185.5 252.182,-179.5 258.182,-179.5"/>
<text text-anchor="middle" x="312.688" y="-278.3" font-family="Times,serif" font-size="14.00">Initiative</text>
<polyline fill="none" stroke="black" points="246.182,-271.5 379.193,-271.5 "/>
<text text-anchor="start" x="254.182" y="-256.3" font-family="Times,serif" font-size="14.00">id :integer</text>
<text text-anchor="start" x="254.182" y="-242.3" font-family="Times,serif" font-size="14.00">name :string</text>
<text text-anchor="start" x="254.182" y="-228.3" font-family="Times,serif" font-size="14.00">description :string</text>
<text text-anchor="start" x="254.182" y="-214.3" font-family="Times,serif" font-size="14.00">problem_id :integer</text>
<text text-anchor="start" x="254.182" y="-200.3" font-family="Times,serif" font-size="14.00">created_at :datetime</text>
<text text-anchor="start" x="254.182" y="-186.3" font-family="Times,serif" font-size="14.00">updated_at :datetime</text>
</g>
<!-- Client&#45;&gt;Initiative -->
<g id="edge1" class="edge"><title>Client&#45;&gt;Initiative</title>
<path fill="none" stroke="#5477bb" d="M339.405,-693.425C333.358,-590.236 322.406,-403.343 316.579,-303.908"/>
<polygon fill="#5477bb" stroke="#5477bb" points="339.409,-693.495 335.502,-703.741 339.702,-698.486 339.995,-703.478 339.995,-703.478 339.995,-703.478 339.702,-698.486 344.487,-703.214 339.409,-693.495 339.409,-693.495"/>
<polygon fill="#5477bb" stroke="#5477bb" points="316.566,-303.671 320.473,-293.424 316.273,-298.679 315.98,-293.688 315.98,-293.688 315.98,-293.688 316.273,-298.679 311.488,-293.951 316.566,-303.671 316.566,-303.671"/>
<text text-anchor="middle" x="352.35" y="-466.8" font-family="Times,serif" font-size="14.00">intiatives</text>
</g>
<!-- Organisation -->
<g id="node9" class="node"><title>Organisation</title>
<path fill="none" stroke="black" d="M237.195,-0.5C237.195,-0.5 450.18,-0.5 450.18,-0.5 456.18,-0.5 462.18,-6.5 462.18,-12.5 462.18,-12.5 462.18,-116.5 462.18,-116.5 462.18,-122.5 456.18,-128.5 450.18,-128.5 450.18,-128.5 237.195,-128.5 237.195,-128.5 231.195,-128.5 225.195,-122.5 225.195,-116.5 225.195,-116.5 225.195,-12.5 225.195,-12.5 225.195,-6.5 231.195,-0.5 237.195,-0.5"/>
<text text-anchor="middle" x="343.688" y="-113.3" font-family="Times,serif" font-size="14.00">Organisation</text>
<polyline fill="none" stroke="black" points="225.195,-106.5 462.18,-106.5 "/>
<text text-anchor="start" x="233.195" y="-91.3" font-family="Times,serif" font-size="14.00">id :integer</text>
<text text-anchor="start" x="233.195" y="-77.3" font-family="Times,serif" font-size="14.00">name :string</text>
<text text-anchor="start" x="233.195" y="-63.3" font-family="Times,serif" font-size="14.00">description :string</text>
<text text-anchor="start" x="233.195" y="-49.3" font-family="Times,serif" font-size="14.00">type :string</text>
<text text-anchor="start" x="233.195" y="-35.3" font-family="Times,serif" font-size="14.00">client_id :integer</text>
<text text-anchor="start" x="233.195" y="-21.3" font-family="Times,serif" font-size="14.00">created_at :datetime</text>
<text text-anchor="start" x="233.195" y="-7.3" font-family="Times,serif" font-size="14.00">updated_at :datetime</text>
</g>
<!-- Client&#45;&gt;Organisation -->
<g id="edge2" class="edge"><title>Client&#45;&gt;Organisation</title>
<path fill="none" stroke="#d610b3" d="M377.404,-695.734C393.662,-655.309 409.688,-603.128 409.688,-554.5 409.688,-554.5 409.688,-554.5 409.688,-235.5 409.688,-202.075 398.463,-167.307 385.271,-137.987"/>
<ellipse fill="none" stroke="#d610b3" cx="375.885" cy="-699.44" rx="4.00002" ry="4.00002"/>
<polygon fill="#d610b3" stroke="#d610b3" points="385.153,-137.733 385.01,-126.768 383.042,-133.201 380.931,-128.668 380.931,-128.668 380.931,-128.668 383.042,-133.201 376.852,-130.568 385.153,-137.733 385.153,-137.733"/>
</g>
<!-- Problem -->
<g id="node10" class="node"><title>Problem</title>
<path fill="none" stroke="black" d="M172.727,-331.5C172.727,-331.5 292.648,-331.5 292.648,-331.5 298.648,-331.5 304.648,-337.5 304.648,-343.5 304.648,-343.5 304.648,-433.5 304.648,-433.5 304.648,-439.5 298.648,-445.5 292.648,-445.5 292.648,-445.5 172.727,-445.5 172.727,-445.5 166.727,-445.5 160.727,-439.5 160.727,-433.5 160.727,-433.5 160.727,-343.5 160.727,-343.5 160.727,-337.5 166.727,-331.5 172.727,-331.5"/>
<text text-anchor="middle" x="232.688" y="-430.3" font-family="Times,serif" font-size="14.00">Problem</text>
<polyline fill="none" stroke="black" points="160.727,-423.5 304.648,-423.5 "/>
<text text-anchor="start" x="168.727" y="-408.3" font-family="Times,serif" font-size="14.00">id :integer</text>
<text text-anchor="start" x="168.727" y="-394.3" font-family="Times,serif" font-size="14.00">name :string</text>
<text text-anchor="start" x="168.727" y="-380.3" font-family="Times,serif" font-size="14.00">description :string</text>
<text text-anchor="start" x="168.727" y="-366.3" font-family="Times,serif" font-size="14.00">community_id :integer</text>
<text text-anchor="start" x="168.727" y="-352.3" font-family="Times,serif" font-size="14.00">created_at :datetime</text>
<text text-anchor="start" x="168.727" y="-338.3" font-family="Times,serif" font-size="14.00">updated_at :datetime</text>
</g>
<!-- Community&#45;&gt;Problem -->
<g id="edge4" class="edge"><title>Community&#45;&gt;Problem</title>
<path fill="none" stroke="#154d96" d="M211.489,-488.227C213.799,-477.468 216.199,-466.29 218.518,-455.489"/>
<ellipse fill="none" stroke="#154d96" cx="210.573" cy="-492.494" rx="4.00001" ry="4.00001"/>
<polygon fill="#154d96" stroke="#154d96" points="218.521,-455.476 225.02,-446.644 219.571,-450.587 220.621,-445.699 220.621,-445.699 220.621,-445.699 219.571,-450.587 216.221,-444.754 218.521,-455.476 218.521,-455.476"/>
</g>
<!-- Initiative&#45;&gt;Organisation -->
<g id="edge5" class="edge"><title>Initiative&#45;&gt;Organisation</title>
<path fill="none" stroke="#a9182f" d="M321.005,-169.065C322.144,-161.606 323.376,-154.129 324.688,-147 325.205,-144.187 325.755,-141.324 326.33,-138.437"/>
<polygon fill="#a9182f" stroke="#a9182f" points="320.971,-169.3 315.06,-178.536 320.241,-174.246 319.512,-179.193 319.512,-179.193 319.512,-179.193 320.241,-174.246 323.963,-179.849 320.971,-169.3 320.971,-169.3"/>
<polygon fill="#a9182f" stroke="#a9182f" points="326.348,-138.351 332.776,-129.467 327.358,-133.454 328.368,-128.558 328.368,-128.558 328.368,-128.558 327.358,-133.454 323.961,-127.648 326.348,-138.351 326.348,-138.351"/>
</g>
<!-- Model::FocusArea -->
<g id="node5" class="node"><title>Model::FocusArea</title>
<path fill="none" stroke="black" d="M480.469,-496.5C480.469,-496.5 636.907,-496.5 636.907,-496.5 642.907,-496.5 648.907,-502.5 648.907,-508.5 648.907,-508.5 648.907,-598.5 648.907,-598.5 648.907,-604.5 642.907,-610.5 636.907,-610.5 636.907,-610.5 480.469,-610.5 480.469,-610.5 474.469,-610.5 468.469,-604.5 468.469,-598.5 468.469,-598.5 468.469,-508.5 468.469,-508.5 468.469,-502.5 474.469,-496.5 480.469,-496.5"/>
<text text-anchor="middle" x="558.688" y="-595.3" font-family="Times,serif" font-size="14.00">Model::FocusArea</text>
<polyline fill="none" stroke="black" points="468.469,-588.5 648.907,-588.5 "/>
<text text-anchor="start" x="476.469" y="-573.3" font-family="Times,serif" font-size="14.00">id :integer</text>
<text text-anchor="start" x="476.469" y="-559.3" font-family="Times,serif" font-size="14.00">name :string</text>
<text text-anchor="start" x="476.469" y="-545.3" font-family="Times,serif" font-size="14.00">description :string</text>
<text text-anchor="start" x="476.469" y="-531.3" font-family="Times,serif" font-size="14.00">focus_area_group_id :integer</text>
<text text-anchor="start" x="476.469" y="-517.3" font-family="Times,serif" font-size="14.00">created_at :datetime</text>
<text text-anchor="start" x="476.469" y="-503.3" font-family="Times,serif" font-size="14.00">updated_at :datetime</text>
</g>
<!-- Model::InterventionCharacteristic -->
<g id="node7" class="node"><title>Model::InterventionCharacteristic</title>
<path fill="none" stroke="black" d="M467.443,-331.5C467.443,-331.5 649.933,-331.5 649.933,-331.5 655.933,-331.5 661.933,-337.5 661.933,-343.5 661.933,-343.5 661.933,-433.5 661.933,-433.5 661.933,-439.5 655.933,-445.5 649.933,-445.5 649.933,-445.5 467.443,-445.5 467.443,-445.5 461.443,-445.5 455.443,-439.5 455.443,-433.5 455.443,-433.5 455.443,-343.5 455.443,-343.5 455.443,-337.5 461.443,-331.5 467.443,-331.5"/>
<text text-anchor="middle" x="558.688" y="-430.3" font-family="Times,serif" font-size="14.00">Model::InterventionCharacteristic</text>
<polyline fill="none" stroke="black" points="455.443,-423.5 661.933,-423.5 "/>
<text text-anchor="start" x="463.443" y="-408.3" font-family="Times,serif" font-size="14.00">id :integer</text>
<text text-anchor="start" x="463.443" y="-394.3" font-family="Times,serif" font-size="14.00">name :string</text>
<text text-anchor="start" x="463.443" y="-380.3" font-family="Times,serif" font-size="14.00">description :string</text>
<text text-anchor="start" x="463.443" y="-366.3" font-family="Times,serif" font-size="14.00">focus_area_id :integer</text>
<text text-anchor="start" x="463.443" y="-352.3" font-family="Times,serif" font-size="14.00">created_at :datetime</text>
<text text-anchor="start" x="463.443" y="-338.3" font-family="Times,serif" font-size="14.00">updated_at :datetime</text>
</g>
<!-- Model::FocusArea&#45;&gt;Model::InterventionCharacteristic -->
<g id="edge6" class="edge"><title>Model::FocusArea&#45;&gt;Model::InterventionCharacteristic</title>
<path fill="none" stroke="#4ede14" d="M558.688,-488.227C558.688,-477.578 558.688,-466.518 558.688,-455.82"/>
<ellipse fill="none" stroke="#4ede14" cx="558.688" cy="-492.405" rx="4" ry="4"/>
<polygon fill="#4ede14" stroke="#4ede14" points="558.688,-455.699 563.188,-445.699 558.688,-450.699 558.688,-445.699 558.688,-445.699 558.688,-445.699 558.688,-450.699 554.188,-445.699 558.688,-455.699 558.688,-455.699"/>
<text text-anchor="middle" x="636.043" y="-466.8" font-family="Times,serif" font-size="14.00">intervention_characteristics</text>
</g>
<!-- Model::FocusAreaGroup -->
<g id="node6" class="node"><title>Model::FocusAreaGroup</title>
<path fill="none" stroke="black" d="M492.312,-717.5C492.312,-717.5 625.064,-717.5 625.064,-717.5 631.064,-717.5 637.064,-723.5 637.064,-729.5 637.064,-729.5 637.064,-805.5 637.064,-805.5 637.064,-811.5 631.064,-817.5 625.064,-817.5 625.064,-817.5 492.312,-817.5 492.312,-817.5 486.312,-817.5 480.312,-811.5 480.312,-805.5 480.312,-805.5 480.312,-729.5 480.312,-729.5 480.312,-723.5 486.312,-717.5 492.312,-717.5"/>
<text text-anchor="middle" x="558.688" y="-802.3" font-family="Times,serif" font-size="14.00">Model::FocusAreaGroup</text>
<polyline fill="none" stroke="black" points="480.312,-795.5 637.064,-795.5 "/>
<text text-anchor="start" x="488.312" y="-780.3" font-family="Times,serif" font-size="14.00">id :integer</text>
<text text-anchor="start" x="488.312" y="-766.3" font-family="Times,serif" font-size="14.00">name :string</text>
<text text-anchor="start" x="488.312" y="-752.3" font-family="Times,serif" font-size="14.00">description :string</text>
<text text-anchor="start" x="488.312" y="-738.3" font-family="Times,serif" font-size="14.00">created_at :datetime</text>
<text text-anchor="start" x="488.312" y="-724.3" font-family="Times,serif" font-size="14.00">updated_at :datetime</text>
</g>
<!-- Model::FocusAreaGroup&#45;&gt;Model::FocusArea -->
<g id="edge7" class="edge"><title>Model::FocusAreaGroup&#45;&gt;Model::FocusArea</title>
<path fill="none" stroke="#4e6ea7" d="M558.688,-709.286C558.688,-681.976 558.688,-649.14 558.688,-620.752"/>
<ellipse fill="none" stroke="#4e6ea7" cx="558.688" cy="-713.33" rx="4" ry="4"/>
<polygon fill="#4e6ea7" stroke="#4e6ea7" points="558.688,-620.513 563.188,-610.512 558.688,-615.513 558.688,-610.513 558.688,-610.513 558.688,-610.513 558.688,-615.513 554.188,-610.513 558.688,-620.513 558.688,-620.513"/>
<text text-anchor="middle" x="591.726" y="-631.8" font-family="Times,serif" font-size="14.00">focus_areas</text>
</g>
<!-- Model -->
<g id="node8" class="node"><title>Model</title>
<polygon fill="none" stroke="black" stroke-dasharray="1,5" points="708.688,-785.5 654.688,-785.5 654.688,-749.5 708.688,-749.5 708.688,-785.5"/>
<text text-anchor="middle" x="681.688" y="-763.3" font-family="Times,serif" font-size="14.00">Model</text>
</g>
<!-- Organisation&#45;&gt;Initiative -->
<g id="edge8" class="edge"><title>Organisation&#45;&gt;Initiative</title>
<path fill="none" stroke="#3faf61" d="M330.34,-138.696C328.486,-148.863 326.59,-159.26 324.761,-169.289"/>
<polygon fill="#3faf61" stroke="#3faf61" points="330.382,-138.466 336.603,-129.435 331.279,-133.547 332.176,-128.628 332.176,-128.628 332.176,-128.628 331.279,-133.547 327.749,-127.821 330.382,-138.466 330.382,-138.466"/>
<polygon fill="#3faf61" stroke="#3faf61" points="324.718,-169.527 318.497,-178.557 323.821,-174.446 322.924,-179.365 322.924,-179.365 322.924,-179.365 323.821,-174.446 327.351,-180.172 324.718,-169.527 324.718,-169.527"/>
<text text-anchor="middle" x="353.35" y="-149.8" font-family="Times,serif" font-size="14.00">intiatives</text>
</g>
<!-- Problem&#45;&gt;Initiative -->
<g id="edge9" class="edge"><title>Problem&#45;&gt;Initiative</title>
<path fill="none" stroke="#9d61a4" d="M266.587,-323.938C270.368,-316.85 274.223,-309.621 278.013,-302.515"/>
<ellipse fill="none" stroke="#9d61a4" cx="264.587" cy="-327.689" rx="4.00002" ry="4.00002"/>
<polygon fill="#9d61a4" stroke="#9d61a4" points="278.063,-302.421 286.74,-295.715 280.416,-298.01 282.769,-293.598 282.769,-293.598 282.769,-293.598 280.416,-298.01 278.798,-291.48 278.063,-302.421 278.063,-302.421"/>
</g>
<!-- User -->
<g id="node11" class="node"><title>User</title>
<path fill="none" stroke="black" d="M738.41,-661.5C738.41,-661.5 918.966,-661.5 918.966,-661.5 924.966,-661.5 930.966,-667.5 930.966,-673.5 930.966,-673.5 930.966,-861.5 930.966,-861.5 930.966,-867.5 924.966,-873.5 918.966,-873.5 918.966,-873.5 738.41,-873.5 738.41,-873.5 732.41,-873.5 726.41,-867.5 726.41,-861.5 726.41,-861.5 726.41,-673.5 726.41,-673.5 726.41,-667.5 732.41,-661.5 738.41,-661.5"/>
<text text-anchor="middle" x="828.688" y="-858.3" font-family="Times,serif" font-size="14.00">User</text>
<polyline fill="none" stroke="black" points="726.41,-851.5 930.966,-851.5 "/>
<text text-anchor="start" x="734.41" y="-836.3" font-family="Times,serif" font-size="14.00">id :integer</text>
<text text-anchor="start" x="734.41" y="-822.3" font-family="Times,serif" font-size="14.00">email :string</text>
<text text-anchor="start" x="734.41" y="-808.3" font-family="Times,serif" font-size="14.00">encrypted_password :string</text>
<text text-anchor="start" x="734.41" y="-794.3" font-family="Times,serif" font-size="14.00">reset_password_token :string</text>
<text text-anchor="start" x="734.41" y="-780.3" font-family="Times,serif" font-size="14.00">reset_password_sent_at :datetime</text>
<text text-anchor="start" x="734.41" y="-766.3" font-family="Times,serif" font-size="14.00">remember_created_at :datetime</text>
<text text-anchor="start" x="734.41" y="-752.3" font-family="Times,serif" font-size="14.00">sign_in_count :integer</text>
<text text-anchor="start" x="734.41" y="-738.3" font-family="Times,serif" font-size="14.00">current_sign_in_at :datetime</text>
<text text-anchor="start" x="734.41" y="-724.3" font-family="Times,serif" font-size="14.00">last_sign_in_at :datetime</text>
<text text-anchor="start" x="734.41" y="-710.3" font-family="Times,serif" font-size="14.00">current_sign_in_ip :string</text>
<text text-anchor="start" x="734.41" y="-696.3" font-family="Times,serif" font-size="14.00">last_sign_in_ip :string</text>
<text text-anchor="start" x="734.41" y="-682.3" font-family="Times,serif" font-size="14.00">created_at :datetime</text>
<text text-anchor="start" x="734.41" y="-668.3" font-family="Times,serif" font-size="14.00">updated_at :datetime</text>
</g>
</g>
</svg>
